<?xml version="1.0" encoding="UTF-8" standalone="no"?>
<!-- Created with Inkscape (http://www.inkscape.org/) -->

<svg
   version="1.1"
   id="svg1"
   width="1024"
   height="1024"
   viewBox="0 0 1024 1024"
   xmlns="http://www.w3.org/2000/svg"
   xmlns:svg="http://www.w3.org/2000/svg">
  <defs
     id="defs1" />
  <g
     id="g1"
     style="stroke:#133861;stroke-opacity:1">
    <path
       style="fill:#000000;stroke:#133861;stroke-opacity:1"
       d="M 131,962.94163 C 105.40388,956.2926 84.9042,935.5115 78.28209,909.5 76.58783,902.84497 76.5,883.50176 76.5,517 76.5,146.78803 76.5727,131.19018 78.33207,123.68771 83.49132,101.68767 99.00516,82.4439 119.2006,72.99331 133.0399,66.517119 101.31729,66.961963 529.21626,67.243694 L 918.5,67.5 l 8.61775,3.08529 c 26.10658,9.34655 45.30605,33.87533 47.67995,60.91471 0.3862,4.4 0.4773,181.025 0.2023,392.5 l -0.5,384.5 -3.2408,8.41612 c -9.42411,24.474 -28.83952,41.49404 -53.23321,46.66561 -5.49416,1.16479 -67.63579,1.37758 -393.02599,1.34584 -379.78112,-0.037 -386.63038,-0.0716 -394,-1.98594 z m 410.5399,-75.48876 c 8.90618,-2.31187 15.09193,-5.44714 27.1042,-13.73786 C 628.38601,832.4819 691.90753,809.25663 763.41061,802.50283 774.47787,801.45748 791.43377,801 819.11139,801 c 25.90413,0 41.6395,-0.39612 45.08939,-1.13506 6.43367,-1.37806 12.03514,-6.44887 13.68384,-12.38749 0.78309,-2.8207 1.10585,-47.89682 1.1098,-154.99305 0.005,-144.35323 -0.075,-151.16592 -1.82169,-154.42274 -3.0252,-5.64081 -7.21174,-7.28354 -17.25463,-6.77041 -4.72005,0.24117 -9.89505,1.0678 -11.5,1.83695 L 845.5,474.52667 845,616.01334 c -0.275,77.81766 -0.88564,142.27416 -1.35699,143.23666 -0.76768,1.56763 -2.69559,1.75093 -18.5,1.75894 -104.22633,0.0528 -196.73814,27.4593 -271.19806,80.34201 -17.08096,12.13119 -19.22112,13.15424 -27.44495,13.11935 -8.49652,-0.036 -10.99813,-1.22282 -28.5,-13.52046 -34.28436,-24.0898 -76.26804,-44.63191 -117.17402,-57.33183 -46.48713,-14.43268 -87.00524,-20.85954 -142.21452,-22.55763 -26.2206,-0.80647 -27.05951,-0.89547 -28.80924,-3.0563 C 208.08514,755.88358 208,749.17678 208,616.0442 c 0,-131.82094 -0.0991,-139.82232 -1.75,-141.28982 -4.39789,-3.90935 -20.04392,-5.10311 -26.25,-2.00283 -2.00237,1.0003 -4.24815,3.24608 -5.24845,5.24845 -1.64141,3.28575 -1.74854,12.74944 -1.75,154.60078 -0.001,111.46879 0.30086,151.99235 1.1514,154.5 1.79025,5.27815 4.6397,8.74399 9.18126,11.16733 4.09777,2.18653 4.99034,2.23301 54.66579,2.84671 38.30156,0.47318 53.46136,1.02117 62.75963,2.26861 67.34662,9.03506 121.94273,29.53234 178.74037,67.10536 9.35,6.18525 18.575,12.05754 20.5,13.04954 10.10725,5.20851 29.51095,7.03703 41.5399,3.91454 z M 532.19178,838.25 c 1.95143,-1.5125 8.2191,-6.95865 13.92814,-12.10256 64.32348,-57.95611 159.788,-98.0641 245.19261,-103.01399 8.14689,-0.47218 15.2774,-1.32338 15.84558,-1.89156 1.27926,-1.27926 1.17681,-294.30697 -0.10334,-295.58712 -1.27371,-1.27371 -32.96337,1.03403 -47.16364,3.43459 -27.79013,4.69795 -50.95942,12.3554 -78.39113,25.90827 -19.05237,9.41298 -35.57941,19.67003 -44.23469,27.45304 -6.40698,5.76129 -7.49449,8.95985 -10.29588,30.28204 -2.25406,17.15626 -4.50774,24.32853 -9.53544,30.3463 -4.03884,4.83418 -3.74462,1.55302 -3.85211,42.95914 l -0.0819,31.53815 -3.75179,7.60494 c -6.87774,13.9413 -20.19355,23.96367 -35.74821,26.90652 -5.42117,1.02565 -6.99792,1.80869 -9.5,4.71787 -13.99089,16.26725 -18.85302,18.68425 -37.5,18.6415 -10.24345,-0.0235 -13.4196,-0.39943 -17.59407,-2.08257 -7.6302,-3.07648 -13.76396,-7.70779 -18.58428,-14.0321 -4.30871,-5.65305 -4.3493,-5.6768 -13.55186,-7.92807 -5.07662,-1.24191 -11.5909,-3.52846 -14.47619,-5.08121 -7.41078,-3.9882 -16.08121,-13.13149 -20.00418,-21.09516 L 439.5,618.55048 439,582.4399 l -0.5,-36.11058 -3.3751,-3.84193 c -5.6434,-6.424 -7.11543,-11.33003 -9.62821,-32.08924 -2.31247,-19.10435 -3.4191,-22.21261 -10.07362,-28.29447 -3.06917,-2.80504 -9.93242,-7.97989 -15.25168,-11.49966 C 358.56454,443.07263 307.2812,426.73116 259.5,425.77899 l -14,-0.27899 -0.25333,146.89352 c -0.16647,96.52583 0.0885,147.30538 0.74352,148.09466 0.62724,0.75578 5.91207,1.44726 14.25333,1.86495 21.16783,1.05997 40.15047,4.24886 66.56843,11.18282 64.44317,16.9145 137.24681,54.78589 181.68805,94.51147 15.74502,14.07432 17.6423,14.89136 23.69178,10.20258 z m 46.24948,-209.51645 c 5.39833,-3.05929 8.98298,-10.10341 9.02641,-17.73764 0.0556,-9.78136 5.35162,-8.99591 -60.65586,-8.99591 -36.20628,0 -58.63512,0.37025 -59.78745,0.98696 -4.18858,2.24166 -3.00554,15.95336 1.9163,22.21047 4.55662,5.79281 4.19676,5.75646 57.05934,5.76335 48.35305,0.006 48.51194,-4.5e-4 52.44126,-2.22723 z M 593,573.37455 c 2.22637,-2.15513 2.5,-3.23537 2.5,-9.8695 0,-6.41846 -0.31519,-7.76475 -2.27736,-9.72727 l -2.27735,-2.27778 -64.02795,-0.27162 -64.02795,-0.27161 -2.9447,2.94469 C 457.33624,556.50992 457,557.53467 457,562.87602 c 0,3.31643 0.55159,7.24049 1.22576,8.72013 2.51937,5.52941 1.79734,5.47961 69.77424,4.81212 l 62.5,-0.61371 z M 482.23663,461.75 c 0.34922,-60.4443 0.42328,-62.47852 2.55338,-70.12816 3.17028,-11.38519 8.41633,-21.5877 15.80778,-30.74296 l 6.47264,-8.0172 -3.96797,-4.68084 C 500.92007,345.60638 490.299,334.725 479.50007,324 c -10.79893,-10.725 -20.27918,-20.71515 -21.06724,-22.20034 -5.82231,-10.97284 6.58223,-24.09118 17.36683,-18.36619 1.48519,0.78841 13.27175,12.03841 26.19236,25 C 514.91263,321.39506 525.91655,332 526.44516,332 c 0.52862,0 11.78221,-10.74913 25.00798,-23.88696 13.22577,-13.13783 25.02978,-24.38783 26.23112,-25 5.51878,-2.81223 13.79608,0.0476 16.76719,5.79308 2.01592,3.89836 1.97524,10.00401 -0.0874,13.12137 -0.89979,1.35988 -12.45047,13.35161 -25.66817,26.64829 l -24.03219,24.17578 5.09825,5.5783 c 9.43069,10.31868 15.7594,22.80305 18.64746,36.78505 1.352,6.54545 1.59064,16.7951 1.59064,68.31852 v 60.61774 l 13.98362,-0.32559 13.98362,-0.32558 3.04287,-3.04573 c 2.8093,-2.81192 3.15864,-3.96338 4.55086,-15 2.87357,-22.77973 7.76805,-37.92879 18.08993,-55.99067 2.667,-4.66689 12.59515,-19.39289 22.06254,-32.72443 18.83687,-26.5252 27.1157,-40.31354 32.74598,-54.53822 17.85619,-45.11295 12.3173,-96.88099 -14.76563,-138.00378 -20.21223,-30.69031 -48.99559,-52.56223 -84.36141,-64.10462 -19.27956,-6.2923 -28.53973,-7.60101 -53.33238,-7.5373 -19.36013,0.0497 -22.75422,0.32104 -34.10155,2.72573 -35.06552,7.43096 -61.72547,22.15011 -86.05886,47.51372 -19.51884,20.34522 -32.80006,45.70237 -39.02945,74.51689 -1.84171,8.51903 -2.21143,13.46543 -2.25638,30.18841 -0.0599,22.28107 0.94636,29.10996 6.94784,47.15132 6.22697,18.71923 13.24388,30.92372 36.18556,62.93744 28.99033,40.45425 34.79943,53.25341 39.20601,86.38243 1.0302,7.74513 2.48057,14.77422 3.23642,15.68496 2.7371,3.298 7.12982,4.26479 19.5589,4.30471 L 481.87698,524 Z M 543.5,461.5 c 0,-68.44959 0.29506,-65.10808 -6.42489,-72.76167 -6.02622,-6.86349 -14.22714,-7.3061 -21.05625,-1.13641 C 508.87868,394.05265 509,392.76325 509,462.20175 v 61.84548 L 526.25,523.77361 543.5,523.5 Z"
       id="path1" />
  </g>
  <path
     style="fill:#000000;fill-opacity:1;stroke:#133861;stroke-width:2;stroke-opacity:1"
     d="M 127.68837,960.22296 C 107.50747,952.98568 92.488578,939.24852 83.538239,919.84068 L 79,910 78.475063,522.14596 C 78.010978,179.25364 78.305293,132.88389 81.013913,122.14595 87.825275,95.143274 111.88169,72.537368 136.43165,70.069686 143.34424,69.374854 323.15,69.074926 536,69.403178 L 923,70 l 9.3247,4.593551 c 14.95188,7.365621 26.82902,19.196595 34.1018,33.969239 l 6.5735,13.35223 0.5246,392.70502 0.52458,392.70502 -6.26808,13.1336 c -7.429,15.56608 -19.40018,28.17356 -34.1061,35.91896 L 923,962 529,962.42254 c -320.76062,0.34398 -395.35914,-0.0649 -401.31163,-2.19958 z M 544.137,887.7947 c 5.97464,-1.76292 19.863,-9.10594 30.863,-16.31784 41.59124,-27.26832 82.14978,-45.4234 126.7093,-56.71842 33.66398,-8.5332 63.08628,-11.74248 108.89314,-11.87766 48.9303,-0.1444 58.49986,-1.43452 64.7777,-8.73292 L 880,788.77694 v -154.6669 c 0,-149.30416 -0.13256,-154.83062 -3.8233,-159.38848 -2.97942,-3.67942 -5.7384,-4.70468 -12.5,-4.64512 -4.77218,0.042 -11.1517,0.73418 -14.1767,1.5381 l -5.5,1.46166 v 103.64028 c 0,57.00216 -0.58836,121.20822 -1.30748,142.68016 l -1.3075,39.03986 -32.1925,1.38794 c -56.16792,2.42162 -100.48854,9.93012 -144.33496,24.45226 -40.89704,13.54528 -67.6759,26.75572 -107.58796,53.07482 -30.43958,20.0727 -31.59008,20.1322 -57.28486,2.9627 C 461.5325,814.62008 429.90202,798.9104 388.17622,784.78304 344.8893,770.12714 308.46136,763.66372 250,760.26638 L 211,758 209.87611,616 c -0.61814,-78.1 -1.29314,-142.19032 -1.5,-142.42292 -1.84607,-2.07578 -18.41017,-4.64066 -23.63708,-3.66008 C 171.31528,472.43532 172,463.59798 172,634.33348 v 154.44346 l 4.71189,5.4779 c 6.04455,7.02722 18.16835,8.50232 71.03143,8.64246 88.44024,0.23444 153.14796,19.52848 231.18612,68.93322 13.16118,8.33214 27.11118,15.67758 31,16.3232 3.8888,0.64562 7.97056,1.4791 9.07056,1.85218 4.86318,1.64938 15.10714,0.74826 25.137,-2.2112 z M 534.59942,837.5 c 3.95678,-3.025 16.0776,-12.76968 26.93516,-21.65482 24.3092,-19.89316 50.03048,-35.99748 81.46542,-51.00626 49.6588,-23.70984 89.7518,-34.4139 153.23454,-40.91068 l 11.23452,-1.14972 1.24808,-10.38926 C 810.33106,698.95476 809.93012,454.08254 808.26624,437 L 807,424 l -15,0.62092 c -46.39224,1.9204 -95.60862,17.48618 -136.99964,43.3292 -22.37056,13.96734 -24.59746,17.14036 -28.95994,41.26406 -4.27474,23.63838 -5.2901,26.92046 -10.38086,33.55554 -3.22322,4.201 -3.65956,8.92026 -3.65956,39.57968 0,38.23046 -1.3156,43.66722 -13.31684,55.0327 -5.94548,5.63052 -21.46676,13.49858 -26.77726,13.57398 -1.70176,0.0242 -6.65176,3.7181 -11,8.20876 -11.41406,11.7879 -16.89432,14.05738 -33.94532,14.05738 -16.74706,0 -20.66228,-1.5179 -31.97626,-12.3969 -4.84902,-4.6626 -12.5832,-9.27896 -19.57736,-11.6853 C 460.2146,643.91308 453.7604,639.09354 446.22298,627.3475 L 440,617.64982 v -35.3678 c 0,-34.23664 -0.1576,-35.60628 -4.9279,-42.8249 -3.53184,-5.34456 -5.78768,-13.19092 -7.96288,-27.69682 -1.66924,-11.13182 -3.62108,-21.76704 -4.33742,-23.6338 -2.13236,-5.55682 -25.72068,-22.21562 -46.757,-33.02124 -36.9849,-18.99784 -79.52232,-30.07968 -115.52761,-30.09722 L 243.97437,425 244.48719,573.5 245,722 l 23,2.44204 c 59.9252,6.36262 125.1506,29.3653 184,64.89026 19.28218,11.63986 37.53716,24.94722 62.67272,45.6867 5.32,4.38954 10.3612,7.981 11.20266,7.981 0.84146,0 4.76728,-2.475 8.72404,-5.5 z m 48.57646,-211.11152 c 6.74428,-7.8451 6.94278,-22.79492 0.32412,-24.41114 -2.475,-0.60436 -30.15,-0.8465 -61.5,-0.5381 L 465,602 l -0.5937,9.11116 c -0.74188,11.38504 4.66324,19.22924 14.14202,20.52366 3.54842,0.48456 27.45582,0.76498 53.12756,0.6231 L 578.35176,632 Z m 10.41746,-51.98086 c 1.67578,-1.3262 2.3834,-5.65328 2,-12.22998 L 595,552 584,550.6978 c -6.05,-0.71622 -35.67914,-1.39122 -65.84252,-1.5 C 455.65602,548.97238 456,548.8901 456,564.06508 c 0,9.74468 2.28862,12.2988 12.00802,13.40102 14.31948,1.62392 123.01354,-1.02322 125.58532,-3.05848 z M 484,462.363 c 0,-71.50782 0.57538,-75.1867 15.07054,-96.35904 C 503.98174,358.8304 508,352.40266 508,351.72008 508,351.0375 496.75,339.01346 483,325 469.25,310.98654 458,298.01284 458,296.16958 458,292.04592 466.7497,283 470.7383,283 c 1.60608,0 14.59748,11.25 28.86978,25 14.2723,13.75 26.55454,25 27.29386,25 0.7393,0 12.89836,-11.25 27.0201,-25 14.12174,-13.75 26.9161,-25 28.43192,-25 5.46648,0 11.64616,6.16864 11.6342,11.6134 -0.009,4.15096 -5.78226,11.46578 -25.16708,31.88784 l -25.15524,26.50122 5.76362,7.49878 C 567.5716,384.10512 568,386.43172 568,461.35628 V 525 h 15.9539 c 19.276,0 20.33508,-1.10254 24.01488,-25 4.43958,-28.83164 10.04872,-40.51196 40.512,-84.3609 29.67906,-42.72016 39.09118,-65.63842 40.95362,-99.72088 4.01164,-73.4131 -41.55258,-135.80237 -116.4344,-159.429 -12.1075,-3.82015 -18.46086,-4.41278 -47,-4.38412 -31.52194,0.0317 -33.82118,0.30933 -51.3344,6.19929 -43.81978,14.73725 -76.26826,42.17764 -95.8454,81.05265 C 367.52756,261.78123 364,278.20474 364,308.35656 c 0,41.61184 6.41072,58.6359 40.2957,107.00754 29.7326,42.44404 36.34166,56.8645 41.76964,91.13782 1.51616,9.57332 3.4247,15.16032 5.61568,16.4392 1.82544,1.06548 9.84398,1.96462 17.81898,1.99806 L 484,525 Z m 60,-2.33144 V 395.0631 l -5.68702,-6.36488 c -7.3934,-8.27464 -16.27766,-8.64158 -23.9342,-0.98856 L 509,393.086 508.42236,459.043 507.84472,525 H 525.92236 544 Z"
     id="path2" />
  <path
     style="fill:#000000;fill-opacity:1;stroke:#133861;stroke-width:2;stroke-opacity:1"
     d="M 155,959.12336 C 126.95139,958.07308 124.39493,957.6443 115.6978,952.5316 103.89446,945.5929 91.500189,931.5571 84.950362,917.7119 L 79.848693,906.92786 80.424347,516.46394 81,126 85.607504,114.59674 C 91.728035,99.448834 105.39203,84.575225 119.59477,77.600729 L 131,72 l 394.68316,-0.519656 394.68318,-0.519656 11.82102,6.30054 c 14.42852,7.690321 25.5933,19.456354 33.69912,35.513912 L 972,124.88593 V 516 907.11406 l -6.15522,12.19344 c -7.49582,14.84912 -21.82994,29.59064 -35.51692,36.52636 L 920.13298,961 552.56648,960.62336 C 350.40492,960.4162 171.5,959.7412 155,959.12336 Z m 384.86118,-68.28044 c 6.4171,-1.3762 20.3896,-8.36996 38.59846,-19.3199 C 660.82986,821.9894 720.40348,805.08266 813,804.96146 c 42.129,-0.0551 55.79786,-2.06138 63.35164,-9.29836 l 5.80734,-5.56376 -0.5795,-156.34086 c -0.66634,-179.7747 1.09846,-164.78118 -19.38946,-164.73118 -6.1545,0.015 -13.21502,0.57 -15.69002,1.23328 l -4.5,1.20594 -0.005,102.26674 c -0.003,56.2467 -0.59204,120.37758 -1.30926,142.51306 l -1.304,40.24634 -29.19074,1.40732 c -58.61462,2.8259 -100.59396,10.03366 -146.78302,25.20238 -36.21536,11.8933 -65.67724,26.06506 -102.2721,49.19496 -34.97406,22.10546 -35.37042,22.14032 -61.25138,5.38916 -81.80146,-52.94512 -151.76246,-74.4272 -260.12137,-79.8723 l -27.23714,-1.3687 -0.89833,-141.69154 c -0.49408,-77.93034 -1.35601,-142.14922 -1.91541,-142.70862 -2.15159,-2.15158 -21.99861,-4.888 -27.48864,-3.78998 -11.47799,2.29558 -11.16868,-2.05452 -11.83632,166.46234 -0.58181,146.85284 -0.42931,154.924 3,158.77604 7.7638,8.72084 15.03697,9.90394 71.61297,11.64886 32.03462,0.98802 61.72856,2.9603 73,4.8487 54.56962,9.14242 94.62758,24.73472 154,59.94346 38.22342,22.66708 47.02096,25.37762 67.86118,20.90818 z m -7.8062,-49.23216 c 2.71976,-1.8641 13.67962,-10.4256 24.35524,-19.02558 C 585.9864,798.75942 605.9576,786.08874 641,768.91734 c 49.5045,-24.25808 82.98084,-34.02488 141.22832,-41.20372 l 27.22834,-3.3558 1.25968,-16.17892 C 812.30682,687.75142 811.9537,487.10678 810.26374,451 L 809,424 795,423.38028 C 739.6847,420.93166 637.13192,463.0332 628.1565,491.87542 627.10824,495.24394 624.76578,505.65 622.951,515 c -1.81478,9.35 -5.21404,20.15 -7.5539,24 -3.80542,6.26142 -4.37018,10.92364 -5.3527,44.18686 -1.05936,35.8653 -1.28434,37.46782 -6.33036,45.09288 C 598.665,635.90936 578.35622,649 571.56868,649 c -1.57928,0 -5.0327,2.30058 -7.67426,5.11238 -2.64154,2.8118 -8.80274,7.7618 -13.69152,11 C 542.52146,670.20036 539.4415,671 527.52562,671 c -14.8098,0 -18.33986,-1.26666 -30.16726,-10.82462 -4.20292,-3.39646 -15.00292,-9.77538 -24,-14.17538 -13.00618,-6.36062 -17.8932,-10.04922 -23.84828,-18 l -7.48992,-10 -0.0101,-33.34888 c -0.01,-32.02094 -0.2397,-33.9323 -5.77636,-48 -3.17144,-8.05812 -6.88506,-22.09918 -8.25246,-31.20236 C 425.0025,485.61848 422.6955,482.2904 402.46508,468.63904 362.70248,441.8075 314.33614,425.88128 265.5,423.5387 l -23.5,-1.12726 0.14825,141.79428 c 0.0815,77.98686 0.75653,145.84428 1.5,150.79428 1.23037,8.19182 1.89053,9.04934 7.35175,9.54938 90.99868,8.33204 174.9161,42.91764 252.70788,104.15062 11.38934,8.965 21.31408,16.3 22.055,16.3 0.7409,0 3.57236,-1.52516 6.2921,-3.38924 z M 583.7775,628.9148 c 8.12814,-9.76622 7.97934,-26.44188 -0.25562,-28.6485 -6.2796,-1.68268 -109.37872,-1.19172 -115.52188,0.55012 -4.51858,1.2812 -4.99216,2.41024 -4.91862,11.72614 0.063,7.98404 1.13684,11.43192 4.76222,15.29096 5.81424,6.18898 12.10368,6.76098 69.49994,6.3208 l 42.34352,-0.32472 z m 11.4223,-54.84982 c 3.77088,-5.15698 3.62652,-19.88942 -0.2262,-23.0869 -2.1946,-1.82134 -18.02644,-2.79024 -57.60146,-3.52512 -57.89612,-1.07512 -75.52452,-0.0149 -80.37334,4.83396 -3.97696,3.97696 -3.82104,16.64914 0.27684,22.49968 l 3.27564,4.67664 65.92416,-0.78438 c 62.1403,-0.73936 66.08488,-1.00418 68.72436,-4.61388 z M 486.46298,460.5 c 0.87502,-73.61882 0.4778,-71.12756 15.1343,-94.9186 l 8.8826,-14.41858 -22.5019,-24.01038 c -30.05404,-32.06882 -29.52752,-31.24524 -23.84322,-37.29588 2.50936,-2.6711 5.19492,-4.85656 5.9679,-4.85656 0.77296,0 13.68646,11.34624 28.69664,25.21388 24.88156,22.98762 27.62516,24.97426 31.07292,22.5 2.07992,-1.49264 14.62542,-12.83888 27.8789,-25.21388 13.25346,-12.375 24.89184,-22.5 25.86306,-22.5 3.62014,0 8.72782,7.77172 7.5489,11.48618 -0.6586,2.07506 -11.96944,15.41454 -25.1352,29.64332 -13.16578,14.22878 -23.95804,26.41608 -23.98282,27.0829 -0.0248,0.66682 3.16846,5.42102 7.09612,10.5649 15.86664,20.77992 15.77252,20.2345 16.51692,95.7227 l 0.66564,67.5 h 15.61656 c 21.61054,0 22.75816,-1.2027 28.82722,-30.21084 2.67088,-12.76598 6.84706,-27.16598 9.2804,-32 2.43332,-4.83404 15.13948,-25.13706 28.2359,-45.11784 C 684.49456,364.4258 690.70328,348.07266 690.68156,308 690.65586,260.59339 675.58024,225.63368 641.45676,193.84982 624.50114,178.05673 608.03246,167.74602 585,158.50337 c -15.74862,-6.31973 -16.6001,-6.43145 -54.1943,-7.11106 l -38.19432,-0.69046 -19.24406,6.38121 c -43.97424,14.58159 -76.71546,42.6159 -96.96068,83.0215 -11.59662,23.14466 -13.41986,32.60766 -13.27402,68.89544 0.1851,46.06296 2.93018,53.44804 40.5159,109 22.72454,33.58704 33.05128,54.1889 37.4474,74.70762 7.49502,34.98264 6.58672,33.95644 30.24036,34.1656 L 485.67258,527 Z M 546,460.59522 v -66.4048 l -6.39234,-6.5952 c -8.70134,-8.97752 -18.41334,-9.14708 -26.73348,-0.4667 L 507,393.25704 506.39994,460.12852 505.79986,527 H 525.89994 546 Z"
     id="path3" />
  <path
     style="fill:#133861;fill-opacity:1;stroke:#133861;stroke-width:2;stroke-opacity:1"
     d="m 197,957.0835 c -66.75536,-1.03328 -70.3731,-1.2833 -78.04923,-5.39418 -10.57112,-5.66126 -25.320943,-21.60598 -31.782501,-34.35726 L 82,907.13298 V 517.3352 127.53743 l 7.020256,-14.03267 C 96.933118,97.687882 108.59993,85.803806 123.75309,78.12512 L 133.86703,73 H 527.19006 920.5131 l 10.24344,5.877584 c 12.87526,7.387682 22.9891,17.7807 32.11822,33.004756 L 970,123.76469 V 516 908.23532 l -7.13428,11.88234 c -9.25884,15.42088 -15.25854,21.71942 -29.6758,31.15394 L 921.37986,959 594.18992,958.5835 C 414.23546,958.35442 235.5,957.67942 197,957.0835 Z m 344.137,-65.03178 c 5.42464,-1.62156 20.213,-8.85688 32.863,-16.07848 36.74634,-20.97768 81.35196,-42.2725 104.27776,-49.78242 39.31994,-12.88026 83.26778,-19.1529 134.72224,-19.22876 35.79164,-0.0528 53.76884,-2.61576 63.49532,-9.05244 L 884,792.94324 883.90798,665.47162 C 883.81224,532.83434 882.23168,478.90698 878.22032,471.41168 876.19962,467.63594 874.17566,467 864.17964,467 c -6.4238,0 -14.49214,0.5625 -17.92964,1.25 L 840,469.5 v 100.42752 c 0,55.23514 -0.58976,119.36488 -1.31058,142.51052 l -1.3106,42.08298 -26.1894,1.40198 c -73.4897,3.93404 -129.52816,15.68758 -182.77888,38.33612 -24.1448,10.26924 -33.09158,15.0344 -67.92908,36.17978 -13.4852,8.18514 -25.38088,14.58486 -26.43484,14.22158 -2.47322,-0.85242 40.4581,-34.1682 62.77608,-48.71578 20.54792,-13.39382 71.41068,-38.25824 95.33456,-46.60458 23.31168,-8.13278 57.14684,-15.42748 91.15158,-19.65186 l 28.30886,-3.5168 1.4765,-31.08572 c 0.8121,-17.09716 0.97992,-84.44494 0.37298,-149.66174 -0.87862,-94.40572 -1.6453,-119.22876 -3.76126,-121.77836 -2.26112,-2.72446 -5.79506,-3.01086 -23.68182,-1.91916 -11.56326,0.70574 -28.6741,3.01212 -38.0241,5.1253 -41.87278,9.46358 -90.36278,31.1699 -109.36164,48.95522 -10.79602,10.10644 -10.9366,10.38996 -16.5544,33.38812 -3.11626,12.75732 -7.13638,26.0387 -8.93362,29.51416 -2.43942,4.71732 -3.70116,15.6059 -4.97776,42.957 -1.29452,27.73488 -2.52224,38.20852 -5.05234,43.1012 C 599.74158,631.3011 578.0464,647 572.39592,647 c -1.64118,0 -6.67908,3.02788 -11.19534,6.72862 -15.48666,12.69016 -21.2729,15.25586 -34.42346,15.2639 -11.24908,0.007 -13.4002,-0.76342 -27,-9.66858 -8.12742,-5.32182 -20.51036,-12.70492 -27.51768,-16.40686 -7.23062,-3.81992 -15.88004,-10.4818 -20,-15.4042 L 445,618.8395 443.89518,583.41974 C 442.91466,551.9848 442.1983,546.31246 437.5277,533 434.63324,524.75 431.23404,512.04578 429.97394,504.76838 427.0255,487.7404 422.80712,481.05822 408.23308,470.32942 371.05966,442.9639 315.77972,424.44924 262.7638,421.60804 L 240,420.3881 l 0.20043,131.80596 c 0.19318,127.04322 1.21754,168.9022 4.20625,171.883 0.77368,0.77164 13.37368,3.1416 28,5.26658 51.25682,7.44686 90.51668,19.80742 138.59332,43.63466 33.68896,16.69658 56.48852,31.00884 92.05906,57.7894 24.52808,18.46684 23.9292,21.37004 -1.16502,5.64752 -85.23442,-53.40274 -145.99026,-72.57656 -252.8869,-79.80808 l -34.3693,-2.32508 -1.21322,-140.93532 C 212.57769,514.96086 211.54672,471.74548 210.00977,470.2057 208.76322,468.95684 200.70225,468 191.42785,468 h -16.3803 l -2.80867,8 c -2.30839,6.57504 -2.84698,34.89606 -3.02377,159 -0.11831,83.05 0.42284,153.25906 1.20256,156.02016 0.77972,2.76108 4.18607,6.65548 7.56968,8.65422 6.50225,3.84098 18.51879,4.98024 98.01265,9.29228 73.69838,3.99768 116.00848,17.4326 191.48916,60.80446 43.9306,25.2429 53.7749,28.2211 73.64784,22.2806 z M 585.4918,629.4949 C 594.3,618.71964 593.37682,601.4163 583.85172,598.75452 577.6493,597.02128 488.55062,596.97526 474,598.6978 L 463,600 l -0.58432,12.07214 c -0.52412,10.82804 -0.044,12.58 4.65882,17 7.06236,6.63768 19.68124,7.82502 71.9255,6.76768 l 42,-0.85 z m -7.7972,-50.19956 C 596.61482,577.72388 600,575.25082 600,563 c 0,-12.95804 -3.0359,-14.83564 -26.33624,-16.28806 -33.141,-2.06584 -94.1843,-1.88714 -105.89078,0.30996 -5.92514,1.11206 -11.89798,3.53406 -13.27298,5.38226 -3.3216,4.4647 -3.16222,13.1394 0.39794,21.66008 L 457.7959,581 l 51.60204,-0.15904 c 28.38114,-0.0875 59.11462,-0.783 68.29666,-1.54562 z M 488.51816,462.5 c 1.20432,-73.91188 1.25072,-74.20148 15.50776,-96.7759 C 508.41166,358.77978 512,352.38598 512,351.51568 c 0,-0.87028 -10.81952,-13.26734 -24.04336,-27.54902 -13.22386,-14.28166 -23.79886,-27.2202 -23.5,-28.7523 0.29884,-1.5321 2.02344,-3.71762 3.83244,-4.85672 2.6882,-1.69272 7.80348,2.02672 28,20.35958 13.591,12.33686 26.71124,22.93876 29.1561,23.55978 4.72452,1.20008 6.39374,-0.0944 41.53616,-32.21218 16.47606,-15.05798 17.58956,-15.72504 20.22728,-12.11774 1.53526,2.09958 2.79138,4.33486 2.79138,4.96726 0,0.6324 -11.25,13.70298 -25,29.04574 -13.75,15.34276 -25,28.42756 -25,29.07736 0,0.64978 4.06024,6.94748 9.02276,13.99488 4.9625,7.04738 10.00696,15.99814 11.20988,19.89056 1.29976,4.20582 2.6079,34.53986 3.22428,74.7669 l 1.03716,67.68978 17.68374,-0.68978 c 13.27628,-0.51786 18.52718,-1.53376 21.06772,-4.07598 1.8612,-1.8624 6.38116,-15.31236 10.04438,-29.88878 6.25986,-24.90874 7.5832,-27.95262 22.00486,-50.6138 31.20832,-49.03854 46.14254,-75.09894 50.676,-88.4302 6.36506,-18.71734 7.91932,-58.88476 3.2102,-82.96312 -10.05414,-51.40828 -53.40006,-98.34478 -109.13602,-118.17641 -8.94682,-3.1834 -18.298,-4.13414 -49.2262,-5.00485 -36.0539,-1.01502 -38.95032,-0.81898 -51.9842,3.51841 C 428.3645,169.85041 396.38802,196.58276 374.2519,240.48619 364.07702,260.66643 362,272.11182 362,308 c 0,47.9292 1.28592,51.68162 35.98276,105 26.95348,41.41924 35.1826,57.75412 41.2393,81.86034 8.4878,33.78218 8.51376,33.80894 32.99524,34.01288 L 487.4346,529 Z M 548,461.23272 v -67.76728 l -8.00576,-7.23272 c -10.50602,-9.49156 -17.47974,-9.59008 -27.52362,-0.38882 L 505,392.6878 504.40116,460.8439 503.80232,529 H 525.90116 548 Z"
     id="path4" />
</svg>
